# xmcd
#
# Track frame offsets: 
#        150
#        6700
#        29050
#        50125
#        71138
#        93450
#        115638
#        137800
#        158025
#        184688
#        203963
#        223200
#        243225
#
# Disc length: 3529 seconds
#
# Revision: 0
# Processed by: cddbd v1.4PL0 Copyright (c) Steve Scherf et al.
# Submitted via: ExactAudioCopy v0.95a3
#
DISCID=c80dc70d
DTITLE=王力宏 - 永远的第一天
DYEAR=1900
DGENRE=
TTITLE0=INTRODUCTION
TTITLE1=永远的第一天
TTITLE2=龙的传人
TTITLE3=不要害怕
TTITLE4=狂想世界
TTITLE5=感觉是舞台
TTITLE6=伤口是爱的笔记
TTITLE7=喜欢城
TTITLE8=忘了时间忘了我
TTITLE9=这就是爱
TTITLE10=爱我的歌
TTITLE11=让我取暖
TTITLE12=你可以告诉我
EXTD=
EXTT0=
EXTT1=
EXTT2=
EXTT3=
EXTT4=
EXTT5=
EXTT6=
EXTT7=
EXTT8=
EXTT9=
EXTT10=
EXTT11=
EXTT12=
PLAYORDER=
